inDegrees=no
num_controls=7
num_derivatives=13
num_iterations=142
num_multipliers=7
num_parameters=0
num_slacks=7
num_states=26
objective=6.564740
objective_accelerations=0.706588
objective_balance=0.038850
objective_effort=0.556456
objective_height=5.144285
objective_ligament=0.118561
solver_duration=1288.405525
status=Solve_Succeeded
success=true
DataType=double
version=3
OpenSimVersion=4.4-2022-07-23-0e9fedc
endheader
time	/jointset/ground_pelvis/pelvis_tilt/value	/jointset/ground_pelvis/pelvis_tx/value	/jointset/ground_pelvis/pelvis_ty/value	/jointset/hip_r/hip_flexion_r/value	/jointset/hip_r/hip_adduction_r/value	/jointset/hip_r/hip_rotation_r/value	/jointset/back/lumbar_extension/value	/jointset/patellofemoral_r/patellar_flexion_r/value	/jointset/knee_r/knee_flexion_r/value	/jointset/knee_r/knee_adduction_r/value	/jointset/knee_r/knee_rotation_r/value	/jointset/ankle_r/ankle_angle_r/value	/jointset/subtalar_r/subtalar_angle_r/value	/jointset/ground_pelvis/pelvis_tilt/speed	/jointset/ground_pelvis/pelvis_tx/speed	/jointset/ground_pelvis/pelvis_ty/speed	/jointset/hip_r/hip_flexion_r/speed	/jointset/hip_r/hip_adduction_r/speed	/jointset/hip_r/hip_rotation_r/speed	/jointset/back/lumbar_extension/speed	/jointset/patellofemoral_r/patellar_flexion_r/speed	/jointset/knee_r/knee_flexion_r/speed	/jointset/knee_r/knee_adduction_r/speed	/jointset/knee_r/knee_rotation_r/speed	/jointset/ankle_r/ankle_angle_r/speed	/jointset/subtalar_r/subtalar_angle_r/speed	/forceset/tau_hip_flexion_r	/forceset/tau_hip_adduction_r	/forceset/tau_hip_rotation_r	/forceset/tau_knee_flexion_r	/forceset/tau_ankle_angle_r	/forceset/tau_subtalar_angle_r	/forceset/tau_lumbar_extension	lambda_cid13_p0	lambda_cid14_p0	lambda_cid14_p1	lambda_cid14_p2	lambda_cid14_p3	lambda_cid14_p4	lambda_cid14_p5	/jointset/ground_pelvis/pelvis_tilt/accel	/jointset/ground_pelvis/pelvis_tx/accel	/jointset/ground_pelvis/pelvis_ty/accel	/jointset/hip_r/hip_flexion_r/accel	/jointset/hip_r/hip_adduction_r/accel	/jointset/hip_r/hip_rotation_r/accel	/jointset/back/lumbar_extension/accel	/jointset/patellofemoral_r/patellar_flexion_r/accel	/jointset/knee_r/knee_flexion_r/accel	/jointset/knee_r/knee_adduction_r/accel	/jointset/knee_r/knee_rotation_r/accel	/jointset/ankle_r/ankle_angle_r/accel	/jointset/subtalar_r/subtalar_angle_r/accel	gamma_cid13_p0	gamma_cid14_p0	gamma_cid14_p1	gamma_cid14_p2	gamma_cid14_p3	gamma_cid14_p4	gamma_cid14_p5
1	-0.3213435018414014	-0.01216420832084243	0.6302305394939484	1.557865850249518	-0.2457576767868806	0.05962779221504369	-0.4363314482839754	1.47395317315582	1.473953173155781	0.02972393138442018	0.1745325930719924	0.4363322869895527	0.08462240606389916	-0.001587356711034039	0.003030913106688328	0.01250159289660189	-0.0324454405908616	-0.001324707839548007	-0.003249323403754002	-1.363161517961478e-05	-0.03634148443926254	-0.03634148443926205	0.007996256400473445	1.217509432984078e-05	-0.004076054291614032	-0.003649270701557993	-0.3029408595059734	0.006315223239802249	0.0182463773239722	-0.524584901377088	0.005741235520677049	0.001545497004090162	0.3139950822547554	-0.04314724770807011	-48.51226288049397	-8.08046223107608	2.042371341162472	20.57102246906188	-815.2877750731418	64.69875768773331	1.282068298426347	0.01686003300313639	1.989715736285915	-5.89005903365517	-0.08759911002348031	-1.430499340995532	-0.01417955549786068	-5.706229605850737	-5.706229605850681	0.1853636824331462	0.01096336555253516	-1.365590316240554	-0.6042828896351861	3.724461040413996e-10	-4.454564415496018e-10	9.630556993048364e-09	6.158119120579959e-09	-6.944718586051369e-10	-2.081486561940805e-09	1.142826096061838e-08
1.01	-0.3212958422574104	-0.01213309252308841	0.6304548863796818	1.557247768277022	-0.2457751076855484	0.05952453300496544	-0.4363316635741687	1.473304646310527	1.473304646310491	0.02981357985290232	0.1745327145834268	0.4362231887366695	0.08455600215442581	0.01112327319083572	0.003191208466771924	0.03236432466498795	-0.0911649764724556	-0.002158986902212228	-0.01740068944834289	-3.636214398021026e-05	-0.09336773126235642	-0.09336773126236407	0.00993311637098181	1.021612016847627e-05	-0.01775750300523073	-0.009630711011669277	-0.3028204230578915	0.006313681661944051	0.01827445784848662	-0.5242540287713008	0.005588167316416951	0.001580879637042094	0.313887368406349	-0.04316181804765158	-48.54682755133465	-8.062435245323739	2.029545739827086	20.6134806400337	-815.0694664542381	64.70893968833674	1.266160287081378	0.015457747583886	1.984031884136972	-5.862004324464094	-0.0809671392894766	-1.407181673411613	0.002639839246506723	-5.70139944083768	-5.701399440838881	0.1978009217715844	-0.006057611007099538	-1.371509157852344	-0.5949486820359519	1.111851805679072e-09	3.797414166504887e-10	2.654381600270563e-08	1.394332679753916e-08	-4.180189311370199e-09	-5.342909338409022e-09	3.213387344786823e-08
1.02	-0.3211209563842005	-0.01210040507971894	0.6308777565805034	1.556042670253897	-0.245800806341824	0.05927981484700013	-0.4363323129985824	1.472085741552943	1.47208574155291	0.02992258767456541	0.1745327600887414	0.4359768585948613	0.08442980902578384	0.02385790113327219	0.003345242229775426	0.05220625591425655	-0.149848650716149	-0.002978259360939361	-0.03154111298177485	-0.0001007070400616077	-0.1504170668974106	-0.1504170668974251	0.01186812703796645	-3.026138258760984e-06	-0.03152243207605501	-0.01560711453525494	-0.3026999866098031	0.006312140084088423	0.01830253837301889	-0.5239231561655135	0.005435099112156418	0.001616262269997814	0.3137796545579484	-0.04318465088562766	-48.59093072672401	-8.044145280079595	2.014470201318905	20.6883066574303	-814.995493019948	64.72039442990048	1.286867906539805	0.01560771358703053	1.985555632462408	-5.882886706075018	-0.08459778923602475	-1.428310838764113	-0.02250242895287236	-5.710847368242792	-5.71084736824247	0.184993821728379	0.008706708699288145	-1.382286387682216	-0.6032755323300485	1.410312719837964e-09	-7.43536194127111e-10	4.096191235243803e-08	2.134982113065635e-08	-3.39370790007611e-09	-7.65531430872756e-09	4.594634955916895e-08
1.03	-0.320819025380163	-0.01206601183106824	0.6314988384318118	1.55425128082461	-0.2458346235523991	0.05889378650668504	-0.4363322577863747	1.47029641693606	1.470296416936065	0.03005092307653291	0.1745326529005334	0.4355927269427279	0.08424398979649815	0.03648919859069026	0.003552084018302919	0.07199622771136818	-0.2083858446930597	-0.003783438863016876	-0.04565662077035353	0.0002622893977347669	-0.2074329999587467	-0.2074329999587712	0.01380058313118506	-1.572217294931655e-05	-0.0452915617600279	-0.02154597300431077	-0.3032416304697305	0.006333923318153074	0.01834787996663265	-0.5230254693278619	0.005110363562487539	0.001695320270533056	0.3144203172835905	-0.04320217454136481	-48.68067823021929	-8.006278708332541	1.986449847342662	20.52076107536076	-815.0361031481496	64.70013873703805	1.245395748015047	0.02602338126886846	1.973632952318552	-5.832627112161316	-0.07821089831306771	-1.401983084720534	0.08824438131055184	-5.694738139599877	-5.694738139601583	0.1976206995431265	-0.005845134125068809	-1.372378353161147	-0.5875649220910272	1.704274197389928e-09	-1.886696207649393e-09	5.535454785870179e-08	2.87524510418976e-08	-2.563632622822209e-09	-9.9580354238813e-09	5.968848754418443e-08
